<svg viewBox="0 0 512 512" xmlns="http://www.w3.org/2000/svg"><path d="M497 176.734h-5.91L430.594 25.496a14.998 14.998 0 00-19.496-8.355L307.39 58.613c-8.671-12.101-21.503-21.027-36.39-24.668V15c0-8.285-6.715-15-15-15s-15 6.715-15 15v18.945c-27.629 6.754-48.2 31.707-48.2 61.39 0 3.013.227 5.974.637 8.876L89.763 145.67l-.004.005a15.017 15.017 0 00-8.352 8.351L20.91 305.266H15c-8.285 0-15 6.718-15 15 0 43.71 35.559 79.27 79.266 79.27h32.136c43.707 0 79.266-35.56 79.266-79.27 0-8.282-6.715-15-15-15h-5.914l-54.922-137.309 89.777-35.902c8.676 12.101 21.504 21.027 36.391 24.664v261.015h-17.133c-43.707 0-79.27 35.551-79.27 79.266 0 8.285 6.72 15 15 15h192.805c8.282 0 15-6.715 15-15v-.016c0-43.699-35.562-79.25-79.27-79.25H271V156.72c27.629-6.75 48.2-31.703 48.2-61.383a63.86 63.86 0 00-.634-8.879l71.176-28.465-47.496 118.742h-5.914c-8.281 0-15 6.715-15 15 0 43.707 35.559 79.266 79.27 79.266h32.132C476.441 271 512 235.441 512 191.734c0-8.285-6.715-15-15-15zM111.402 369.531H79.266c-21.938 0-40.57-14.41-46.93-34.265h125.867c.043.004.082.011.125.015-6.363 19.848-24.996 34.25-46.926 34.25zm26.043-64.265H53.223l42.109-105.278zM335.07 482H176.93c6.36-19.852 24.996-34.266 46.937-34.266h64.27c21.937 0 40.578 14.414 46.933 34.266zM256 128.531c-18.305 0-33.2-14.89-33.2-33.199 0-18.305 14.895-33.2 33.2-33.2s33.2 14.895 33.2 33.2c0 18.309-14.891 33.2-33.2 33.2zm160.668-57.074l42.11 105.277h-84.223zM432.734 241h-32.132c-21.938 0-40.575-14.414-46.934-34.266h125.867l.125.012C473.297 226.594 454.668 241 432.734 241zm0 0"/></svg>