<svg xmlns="http://www.w3.org/2000/svg" viewBox="0 0 120.05 9.02"><path d="M3.77 5.8L2.62.15H0v8.67h1.53V.98h.01l1.64 7.84h1.14L5.95.96 6 .97v7.85h1.53V.15H4.92L3.77 5.8zM10.39.15l-2.2 8.67H10l.52-2.26h1.85l.4 2.26h1.73L12.59.15zm.29 5.13l.79-4 .65 4zM19.7.15h-4.54v8.67h1.64V1.47h2.9V.15zm1.89 0l-2.21 8.67h1.78l.51-2.26h1.85l.4 2.26h1.78L23.78.15zm.28 5.13l.79-4 .66 4zm8.21-1.1a1.66 1.66 0 001-.67 2.09 2.09 0 00.37-1.21 2.34 2.34 0 00-.24-1.09 1.85 1.85 0 00-.63-.72 2.88 2.88 0 00-.82-.37 3.37 3.37 0 00-.9-.12 2.48 2.48 0 00-1.89.74 2.7 2.7 0 00-.69 1.91h1.61a1.66 1.66 0 01.25-1 .83.83 0 01.72-.36.89.89 0 01.44.1.78.78 0 01.28.29 1.64 1.64 0 01.14.39 1.49 1.49 0 01.05.43 1.12 1.12 0 01-.29.83 1.12 1.12 0 01-.78.27h-.35v1.27h.35a1.18 1.18 0 01.87.33 1.51 1.51 0 01.32 1.06 2 2 0 01-.25 1.08.93.93 0 01-.82.36 1 1 0 01-.82-.33 1.46 1.46 0 01-.24-.86h-1.65a2.81 2.81 0 00.23 1.17 1.91 1.91 0 00.62.79 2.86 2.86 0 00.88.42 3.72 3.72 0 001 .13 2.75 2.75 0 002-.65 2.57 2.57 0 00.68-1.95 2.62 2.62 0 00-.39-1.51 1.8 1.8 0 00-1.05-.73zM34 6.46a16.83 16.83 0 00.2-3.07V.15h-1.56v8.67h1.77l2.39-6.29a15.32 15.32 0 00-.21 3v3.29h1.53V.15h-1.75zm9.14-2.97h-2.17V.15h-1.64v8.67h1.64V4.81h2.17v4.01h1.64V.15h-1.64v3.34zm7.02 2.97a16 16 0 00.2-3.07V.15h-1.53v8.67h1.77L53 2.53a15.51 15.51 0 00-.2 3v3.29h1.52V.15h-1.76zm9.16-2.97h-2.16V.15h-1.64v8.67h1.64V4.81h2.16v4.01h1.64V.15h-1.64v3.34zM64.78 0a2.6 2.6 0 00-2 .73A3.24 3.24 0 0062.09 3v3.13a4.87 4.87 0 00.07.89 2.9 2.9 0 00.25.79 2 2 0 00.47.64 2.25 2.25 0 00.77.41 3.4 3.4 0 001.1.16c1.74 0 2.61-1 2.61-2.92v-.36h-1.64v.46a2.2 2.2 0 01-.23 1.16 1 1 0 01-1.5 0 2.19 2.19 0 01-.23-1.17V2.78A2.1 2.1 0 0164 1.65a.87.87 0 01.76-.33.84.84 0 01.75.33 2.09 2.09 0 01.22 1.13V3h1.64v-.46a2.5 2.5 0 00-.68-1.87A2.56 2.56 0 0064.78 0zm3.33 1.47h2.03v7.35h1.64V1.47h2.03V.15h-5.7v1.32zM78.92.5a2.14 2.14 0 00-1.2-.35h-3.1v8.67h1.64V5.29h1.43a2.15 2.15 0 001.21-.35 2.33 2.33 0 00.81-1A3.1 3.1 0 0080 2.68a2.92 2.92 0 00-.27-1.27 2.21 2.21 0 00-.81-.91zM78 3.67a1.16 1.16 0 01-.92.34h-.82V1.44h.82a1.18 1.18 0 01.92.32 1.33 1.33 0 01.31 1 1.34 1.34 0 01-.31.91zm5.79 1.08L82.46.15h-1.84L83 7c-.16.46-.41.69-.73.69h-.19l-.17-.05h-.1v1.22a3.11 3.11 0 001 .16 1.36 1.36 0 001-.42 3.81 3.81 0 00.75-1.44l2.33-7h-1.78zm7.57 1.05L90.21.15H87.6v8.67h1.53V.98h.01l1.64 7.84h1.14L93.55.96l.05.01v7.85h1.53V.15h-2.62L91.36 5.8zm4.96 3.02h4.62V7.5h-2.98V4.81h2.72V3.49h-2.72V1.47h2.98V.15h-4.62v8.67zm9.45-5.33h-2.17V.15h-1.64v8.67h1.64V4.81h2.17v4.01h1.64V.15h-1.64v3.34zm8.14-3.34h-5.7v1.32h2.03v7.35h1.64V1.47h2.03V.15zm4.23 0h-2.2l-2.2 8.67h1.77l.49-2.26h1.86l.4 2.26h1.77zm-1.91 5.13l.78-4 .66 4z"/></svg>