<svg xmlns="http://www.w3.org/2000/svg" viewBox="0 0 120.05 9.02"><title>logo-text</title><polygon points="3.77 5.8 2.62 0.15 0 0.15 0 8.82 1.53 8.82 1.53 0.98 1.54 0.98 3.18 8.82 4.32 8.82 5.95 0.96 6 0.97 6 8.82 7.53 8.82 7.53 0.15 4.92 0.15 3.77 5.8"/><path d="M10.39.15,8.19,8.82H10l.52-2.26h1.85l.4,2.26H14.5L12.59.15Zm.29,5.13.79-4,.65,4Z"/><polygon points="19.7 0.15 15.16 0.15 15.16 8.82 16.8 8.82 16.8 1.47 19.7 1.47 19.7 0.15"/><path d="M21.59.15,19.38,8.82h1.78l.51-2.26h1.85l.4,2.26H25.7L23.78.15Zm.28,5.13.79-4,.66,4Z"/><path d="M30.08,4.18a1.66,1.66,0,0,0,1-.67,2.09,2.09,0,0,0,.37-1.21,2.34,2.34,0,0,0-.24-1.09,1.85,1.85,0,0,0-.63-.72,2.88,2.88,0,0,0-.82-.37,3.37,3.37,0,0,0-.9-.12,2.48,2.48,0,0,0-1.89.74,2.7,2.7,0,0,0-.69,1.91h1.61a1.66,1.66,0,0,1,.25-1,.83.83,0,0,1,.72-.36.89.89,0,0,1,.44.1.78.78,0,0,1,.28.29,1.64,1.64,0,0,1,.14.39,1.49,1.49,0,0,1,.05.43,1.12,1.12,0,0,1-.29.83,1.12,1.12,0,0,1-.78.27h-.35V4.87h.35a1.18,1.18,0,0,1,.87.33,1.51,1.51,0,0,1,.32,1.06,2,2,0,0,1-.25,1.08.93.93,0,0,1-.82.36A1,1,0,0,1,28,7.37a1.46,1.46,0,0,1-.24-.86H26.11a2.81,2.81,0,0,0,.23,1.17,1.91,1.91,0,0,0,.62.79,2.86,2.86,0,0,0,.88.42,3.72,3.72,0,0,0,1,.13,2.75,2.75,0,0,0,2-.65,2.57,2.57,0,0,0,.68-1.95,2.62,2.62,0,0,0-.39-1.51A1.8,1.8,0,0,0,30.08,4.18Z"/><path d="M34,6.46h0a16.83,16.83,0,0,0,.2-3.07V.15H32.64V8.82h1.77L36.8,2.53h0a15.32,15.32,0,0,0-.21,3V8.82h1.53V.15H36.37Z"/><polygon points="43.14 3.49 40.97 3.49 40.97 0.15 39.33 0.15 39.33 8.82 40.97 8.82 40.97 4.81 43.14 4.81 43.14 8.82 44.78 8.82 44.78 0.15 43.14 0.15 43.14 3.49"/><path d="M50.16,6.46h0a16,16,0,0,0,.2-3.07V.15H48.83V8.82H50.6L53,2.53h0a15.51,15.51,0,0,0-.2,3V8.82h1.52V.15H52.56Z"/><polygon points="59.32 3.49 57.16 3.49 57.16 0.15 55.52 0.15 55.52 8.82 57.16 8.82 57.16 4.81 59.32 4.81 59.32 8.82 60.96 8.82 60.96 0.15 59.32 0.15 59.32 3.49"/><path d="M64.78,0a2.6,2.6,0,0,0-2,.73A3.24,3.24,0,0,0,62.09,3V6.13a4.87,4.87,0,0,0,.07.89,2.9,2.9,0,0,0,.25.79,2,2,0,0,0,.47.64,2.25,2.25,0,0,0,.77.41,3.4,3.4,0,0,0,1.1.16c1.74,0,2.61-1,2.61-2.92V5.74H65.72V6.2a2.2,2.2,0,0,1-.23,1.16,1,1,0,0,1-1.5,0,2.19,2.19,0,0,1-.23-1.17V2.78A2.1,2.1,0,0,1,64,1.65a.87.87,0,0,1,.76-.33.84.84,0,0,1,.75.33,2.09,2.09,0,0,1,.22,1.13V3h1.64V2.54A2.5,2.5,0,0,0,66.69.67,2.56,2.56,0,0,0,64.78,0Z"/><polygon points="68.11 1.47 70.14 1.47 70.14 8.82 71.78 8.82 71.78 1.47 73.81 1.47 73.81 0.15 68.11 0.15 68.11 1.47"/><path d="M78.92.5a2.14,2.14,0,0,0-1.2-.35h-3.1V8.82h1.64V5.29h1.43a2.15,2.15,0,0,0,1.21-.35,2.33,2.33,0,0,0,.81-1A3.1,3.1,0,0,0,80,2.68a2.92,2.92,0,0,0-.27-1.27A2.21,2.21,0,0,0,78.92.5ZM78,3.67a1.16,1.16,0,0,1-.92.34h-.82V1.44h.82a1.18,1.18,0,0,1,.92.32,1.33,1.33,0,0,1,.31,1A1.34,1.34,0,0,1,78,3.67Z"/><path d="M83.79,4.75,82.46.15H80.62L83,7c-.16.46-.41.69-.73.69h-.19l-.17-.05-.1,0V8.86a3.11,3.11,0,0,0,1,.16,1.36,1.36,0,0,0,1-.42,3.81,3.81,0,0,0,.75-1.44l2.33-7H85.11Z"/><polygon points="91.36 5.8 90.21 0.15 87.6 0.15 87.6 8.82 89.13 8.82 89.13 0.98 89.14 0.98 90.78 8.82 91.92 8.82 93.55 0.96 93.6 0.97 93.6 8.82 95.13 8.82 95.13 0.15 92.51 0.15 91.36 5.8"/><polygon points="96.32 8.82 100.94 8.82 100.94 7.5 97.96 7.5 97.96 4.81 100.68 4.81 100.68 3.49 97.96 3.49 97.96 1.47 100.94 1.47 100.94 0.15 96.32 0.15 96.32 8.82"/><polygon points="105.77 3.49 103.6 3.49 103.6 0.15 101.96 0.15 101.96 8.82 103.6 8.82 103.6 4.81 105.77 4.81 105.77 8.82 107.41 8.82 107.41 0.15 105.77 0.15 105.77 3.49"/><polygon points="113.91 0.15 108.21 0.15 108.21 1.47 110.24 1.47 110.24 8.82 111.88 8.82 111.88 1.47 113.91 1.47 113.91 0.15"/><path d="M118.14.15h-2.2l-2.2,8.67h1.77L116,6.56h1.86l.4,2.26h1.77Zm-1.91,5.13.78-4,.66,4Z"/></svg>